<?xml version="1.0" standalone="no"?>
<!DOCTYPE svg PUBLIC "-//W3C//DTD SVG 20010904//EN"
 "http://www.w3.org/TR/2001/REC-SVG-20010904/DTD/svg10.dtd">
<svg version="1.0" xmlns="http://www.w3.org/2000/svg"
 width="800.000000pt" height="600.000000pt" viewBox="0 0 800.000000 600.000000"
 preserveAspectRatio="xMidYMid meet">

<g transform="translate(0.000000,600.000000) scale(0.100000,-0.100000)"
fill="#000000" stroke="none">
<path d="M3790 5969 c-127 -11 -320 -43 -381 -62 -24 -8 -98 -31 -163 -52
-218 -67 -470 -208 -668 -372 -202 -168 -444 -455 -539 -639 -75 -145 -60
-175 194 -370 106 -82 227 -175 270 -209 43 -33 100 -75 125 -93 26 -19 73
-54 105 -79 72 -56 133 -76 191 -63 43 9 104 67 186 175 108 144 327 364 408
410 112 64 253 95 429 95 202 0 334 -40 484 -145 82 -58 107 -85 155 -170 27
-46 29 -58 29 -155 0 -96 -3 -112 -34 -190 -30 -74 -44 -94 -111 -161 -79 -77
-206 -156 -390 -241 -280 -130 -642 -484 -745 -728 -10 -25 -27 -65 -37 -88
-35 -80 -48 -184 -48 -379 l0 -185 30 -64 c54 -113 -1 -104 637 -104 476 0
560 2 587 15 48 23 96 109 101 182 l4 58 -9 -53 c-17 -92 -62 -158 -123 -181
-19 -7 -208 -11 -560 -11 -613 0 -573 -6 -623 97 l-29 58 1 210 c0 198 2 215
27 298 62 200 164 355 365 548 162 156 278 237 514 360 251 130 344 204 403
320 57 110 72 273 35 371 -38 101 -148 207 -284 273 -244 120 -595 108 -823
-26 -75 -45 -239 -208 -393 -393 -68 -82 -138 -157 -154 -167 -39 -24 -102
-24 -146 -1 -19 10 -141 99 -270 198 -129 99 -290 221 -357 272 -145 110 -167
137 -168 206 0 44 7 62 49 131 132 213 320 437 490 582 374 319 791 481 1314
513 344 20 620 -27 938 -161 501 -211 886 -575 1068 -1011 85 -205 111 -352
103 -596 -6 -218 -29 -321 -114 -521 -63 -148 -133 -250 -255 -367 -138 -133
-257 -220 -479 -352 -211 -125 -268 -170 -356 -280 -64 -78 -148 -233 -158
-287 -5 -29 -5 -30 6 -5 6 14 28 61 49 105 45 98 141 226 217 293 32 27 121
87 198 132 236 140 314 192 420 281 106 88 222 210 272 284 34 51 113 210 113
228 0 4 11 30 24 59 60 134 95 413 76 613 -14 159 -40 261 -104 415 -80 192
-253 450 -392 581 -258 244 -657 462 -1009 553 -171 44 -483 64 -695 45z"/>
<path d="M3355 1804 c-39 -20 -74 -53 -91 -86 -21 -41 -21 -1146 0 -1187 22
-41 81 -89 118 -96 18 -3 281 -5 584 -3 l551 3 36 28 c21 16 46 46 57 67 19
38 20 60 20 595 l0 555 -25 38 c-71 109 -28 102 -672 102 -477 0 -552 -2 -578
-16z m1177 -22 c20 -13 47 -40 60 -60 l23 -37 0 -560 c0 -542 -1 -561 -20
-594 -27 -46 -64 -72 -116 -82 -66 -12 -1028 -11 -1088 2 -59 12 -116 68 -126
121 -3 18 -5 279 -3 580 3 534 3 547 24 574 33 45 71 68 122 74 26 3 281 5
567 5 l520 0 37 -23z"/>
</g>
</svg>
